<?xml version="1.0" encoding="UTF-8"?><svg id="Layer_1" xmlns="http://www.w3.org/2000/svg" viewBox="0 0 96 96"><defs><style>.cls-1{fill:#6fb8e2;}.cls-1,.cls-2{stroke-width:0px;}.cls-2{fill:#e1f5ff;}</style></defs><rect class="cls-2" x="0" y="0" width="96" height="96"/><path class="cls-1" d="m67.87,58.99c-.23-.41-.14-.92.21-1.22,1.27-1.11,2.51-2.18,3.7-3.31.69-.65,1.33-.73,2.19-.38,3.9,1.55,14.48,5.71,14.48,5.71,0,0-26.71-26.62-26.63-26.62.03,0-.06-.02-.08,0-5.85,6.76-11.49,13.31-17.29,20.03-1.11,1.28-1.35,1.3-2.63.2-2.38-2.04-4.75-4.09-7.23-6.23-.02-.02-.06-.02-.08,0-3.76,4.72-7.45,9.39-11.15,14.16-.76,1.02-1.88,1.41-2.86.71-.79-.56-3.84-3.31-4.67-3.37s-7.96,3.34-9.74,3.92c-.99.33-1.66.16-1.91-.15-.36-.44-.24-1.1.2-1.62,9.23-10.88,18.32-21.88,27.42-32.87.65-.79,1.31-1.05,2.16-.27,4.04,3.85,8.36,7.39,12.29,11.34.34.34.35.9.01,1.25,0,0,0,0,0,0-.36.38-.96.4-1.35.05-3.9-3.56-7.83-7.14-11.8-10.76-.02-.02-.06-.02-.08,0-8.49,10.15-17.11,20.32-25.56,30.42-.03.04,0,.1.06.08,1.65-.61,5.71-2.35,7.34-3.09,1.51-.68,1.77-.21,3.68,1.22.92.69,1.58,1.26,2.33,1.79.39.28,1.11.05,1.41-.32,3.64-4.56,7.22-9.39,10.83-13.94.97-1.23,1.34-1.28,2.52-.27,2.42,2.07,4.82,4.15,7.36,6.34.02.02.06.02.07,0,5.91-6.84,11.52-13.36,17.35-20.1,1.12-1.29,1.44-1.31,2.59-.14,9.45,9.64,19.3,19.33,28.57,29.15,1,1.06.16,2.48-1.34,1.87-5.02-2.05-10.77-4.25-16.02-6.32-.78-.31-1.31-.24-1.92.34-.95.91-1.92,1.82-2.93,2.66-.48.4-1.2.26-1.5-.28h0Z"/></svg>