<?xml version="1.0" encoding="UTF-8"?><svg id="Layer_1" xmlns="http://www.w3.org/2000/svg" viewBox="0 0 1544 500"><defs><style>.cls-1{fill:#6fb8e2;}.cls-1,.cls-2{stroke-width:0px;}.cls-2{fill:#e1f5ff;}</style></defs><rect class="cls-2" width="1544" height="500"/><path class="cls-1" d="m1009.42,417.02c-2.69-4.85-1.63-10.94,2.53-14.59,15.15-13.3,29.97-26.04,44.15-39.46,8.25-7.81,15.82-8.69,26.17-4.58,46.56,18.49,172.86,68.14,172.86,68.14,0,0-318.75-317.71-317.83-317.74.36-.01-.68-.25-.92.03-69.76,80.65-137.1,158.92-206.41,239.12-13.27,15.33-16.11,15.47-31.41,2.33-28.4-24.39-56.73-48.86-86.33-74.35-.27-.23-.68-.2-.91.08-44.92,56.36-88.97,112.13-133.03,169.01-9.09,12.2-22.46,16.79-34.08,8.49-9.44-6.74-45.84-39.56-55.72-40.22-10.11-.67-94.98,39.87-116.19,46.84-11.82,3.89-19.8,1.89-22.8-1.82-4.29-5.29-2.84-13.17,2.43-19.38,110.17-129.85,218.6-261.17,327.24-392.3,7.79-9.48,15.66-12.51,25.81-3.18,48.23,45.95,99.78,88.19,146.67,135.33,4.08,4.1,4.14,10.75.14,14.94-.04.04-.07.08-.11.11-4.35,4.54-11.52,4.8-16.16.56-46.58-42.48-93.4-85.16-140.8-128.4-.26-.24-.67-.21-.9.06-101.37,121.18-204.24,242.59-305.05,363.09-.41.49.08,1.21.68.99,19.68-7.32,68.1-28.09,87.57-36.85,17.98-8.09,21.12-2.47,43.88,14.54,11.01,8.23,18.88,15.03,27.79,21.41,4.61,3.3,13.24.59,16.77-3.84,43.47-54.45,86.2-112.05,129.21-166.4,11.59-14.71,16.02-15.23,30.04-3.22,28.84,24.71,57.54,49.58,87.79,75.67.26.22.66.2.89-.06,70.5-81.66,137.52-159.5,207.04-239.94,13.31-15.36,17.21-15.65,30.88-1.71,112.84,115.06,230.34,230.72,340.98,347.9,11.96,12.67,1.93,29.63-15.94,22.34-59.89-24.45-128.55-50.7-191.2-75.39-9.26-3.65-15.61-2.9-22.89,4.09-11.35,10.89-22.88,21.69-34.99,31.72-5.69,4.72-14.28,3.1-17.86-3.36h0Z"/></svg>